<svg width="56" height="56" viewBox="0 0 56 56" fill="none" xmlns="http://www.w3.org/2000/svg">
<rect width="56" height="56" rx="16" fill="#F6FAFD"/>
<path d="M37.8409 24.84C32.3043 19.7191 23.6934 19.7209 18.159 24.84C17.9509 25.0325 17.9468 25.3584 18.1481 25.5581L19.2181 26.6197C19.41 26.8103 19.7187 26.8144 19.9181 26.6316C24.4781 22.4541 31.5212 22.4531 36.0822 26.6316C36.2815 26.8144 36.5903 26.81 36.7822 26.6197L37.8522 25.5581C38.0531 25.3584 38.049 25.0325 37.8409 24.84ZM28 31C26.8953 31 26 31.8953 26 33C26 34.1047 26.8953 35 28 35C29.1047 35 30 34.1047 30 33C30 31.8953 29.1047 31 28 31ZM34.3334 28.3878C30.7315 25.2025 25.2643 25.2059 21.6665 28.3878C21.4509 28.5784 21.444 28.9094 21.6487 29.1112L22.725 30.1734C22.9125 30.3584 23.2143 30.3709 23.414 30.1984C26.0375 27.9306 29.9684 27.9356 32.5856 30.1984C32.7853 30.3709 33.0872 30.3587 33.2747 30.1734L34.3509 29.1112C34.5559 28.9094 34.5487 28.5781 34.3334 28.3878Z" fill="#FF6D3F"/>
</svg>
